<?xml version="1.0" standalone="no"?><!DOCTYPE svg PUBLIC "-//W3C//DTD SVG 1.1//EN" "http://www.w3.org/Graphics/SVG/1.1/DTD/svg11.dtd"><svg t="1539358731724" class="icon" style="" viewBox="0 0 1024 1024" version="1.1" xmlns="http://www.w3.org/2000/svg" p-id="38978" xmlns:xlink="http://www.w3.org/1999/xlink" width="128" height="128"><defs><style type="text/css"></style></defs><path d="M768.1 773.8v51.9c0 3.3-2.7 6-6 6h-116c-3.3 0-6-2.7-6-6v-51.9c0-3.3 2.7-6 6-6H698c3.3 0 6-2.7 6-6V582c0-3.3-2.7-6-6-6H518.3c-3.3 0-6 2.7-6 6v179.8c0 3.3 2.7 6 6 6h51.8c3.3 0 6 2.7 6 6v51.9c0 3.3-2.7 6-6 6h-116c-3.3 0-6-2.7-6-6v-52c0-3.3-2.7-6-6-6H262.2c-3.3 0-6 2.7-6 6v179.9c0 3.3 2.7 6 6 6h179.9c3.3 0 6-2.7 6-6v-51.9c0-3.3 2.7-6 6-6h308.1c3.3 0 6 2.7 6 6v51.9c0 3.3 2.7 6 6 6h180c3.3 0 6-2.7 6-6V773.8c0-3.3-2.7-6-6-6h-180c-3.4 0-6.1 2.7-6.1 6z m-390 121.8h-51.9c-3.3 0-6-2.7-6-6v-51.9c0-3.3 2.7-6 6-6h51.9c3.3 0 6 2.7 6 6v51.9c0 3.3-2.7 6-6 6zM634 703.8h-51.8c-3.3 0-6-2.7-6-6V646c0-3.3 2.7-6 6-6H634c3.3 0 6 2.7 6 6v51.8c0 3.3-2.6 6-6 6z m256.2 191.8h-52c-3.3 0-6-2.7-6-6v-51.8c0-3.3 2.7-6 6-6h52c3.3 0 6 2.7 6 6v51.8c0 3.3-2.7 6-6 6z" p-id="38979" fill="#8a8a8a"></path><path d="M134 127.9h436.1c3.3 0 6 2.7 6 6v180c0 3.3 2.7 6 6 6h180.2c3.3 0 6 2.7 6 6l-0.1 180.1c0 3.3 2.7 6 6 6h52c3.3 0 6-2.7 6-6l-0.9-244.8c0-3.3-2.7-6-6-6h-56.9v0.6h-0.2v-58c0-3.3-2.7-6-6-6h-52c-3.3 0-6-2.7-6-6v-52c0-3.3-2.7-6-6-6h-52c-3.3 0-6-2.7-6-6v-52c0-3.3-2.7-6-6-6H76c-6.6 0-12 5.4-12 12v871.6c0 6.6 5.4 12 12 12h109.9c3.3 0 6-2.7 6-6v-52c0-3.3-2.7-6-6-6H134c-3.3 0-6-2.7-6-6V133.9c0-3.3 2.7-6 6-6z" p-id="38980" fill="#8a8a8a"></path><path d="M330.7 416c0-31-22.5-60.7-64.5-60.7h-68.8c-3.3 0-6 2.7-6 6v176.9c0 3.3 2.7 6 6 6h34.4c3.3 0 6-2.7 6-6v-55.4c0-3.3 2.7-6 6-6h22.4c42 0 64.5-29.8 64.5-60.8z m-92.8 13.1v-26.2c0-3.3 2.7-6 6-6h20.3c12.7 0 20.2 9.3 20.2 19.1s-7.4 19.1-20.2 19.1h-20.3c-3.3 0-6-2.7-6-6zM357.8 361.3v176.9c0 3.3 2.7 6 6 6h34.4c3.3 0 6-2.7 6-6v-55.4c0-3.3 2.7-6 6-6h22.4c41.9 0 64.5-29.7 64.5-60.7 0-31-22.5-60.7-64.5-60.7h-68.8c-3.3-0.1-6 2.6-6 5.9z m92.8 54.7c0 9.8-7.4 19.1-20.2 19.1h-20.3c-3.3 0-6-2.7-6-6v-26.2c0-3.3 2.7-6 6-6h20.3c12.8 0 20.2 9.3 20.2 19.1zM605.8 538.1V402.7c0-3.3 2.7-6 6-6h34.4c3.3 0 6-2.7 6-6v-29.4c0-3.3-2.7-6-6-6H519c-3.3 0-6 2.7-6 6v29.4c0 3.3 2.7 6 6 6h34.4c3.3 0 6 2.7 6 6v135.5c0 3.3 2.7 6 6 6h34.4c3.3-0.1 6-2.8 6-6.1z" p-id="38981" fill="#8a8a8a"></path></svg>